<svg xmlns="http://www.w3.org/2000/svg" viewBox="0 0 512 512" role="img" aria-label="Loveca Labo">
  <defs>
    <linearGradient id="bg" x1="0" y1="0" x2="1" y2="1">
      <stop offset="0%" stop-color="#2a1438"/>
      <stop offset="55%" stop-color="#1a1024"/>
      <stop offset="100%" stop-color="#120818"/>
    </linearGradient>
    <linearGradient id="accent" x1="0" y1="0" x2="1" y2="0">
      <stop offset="0%" stop-color="#ff9fd4"/>
      <stop offset="100%" stop-color="#8ec8ff"/>
    </linearGradient>
    <filter id="glow" x="-20%" y="-20%" width="140%" height="140%">
      <feGaussianBlur stdDeviation="8" result="b"/>
      <feMerge>
        <feMergeNode in="b"/>
        <feMergeNode in="SourceGraphic"/>
      </feMerge>
    </filter>
  </defs>
  <rect width="512" height="512" rx="112" fill="url(#bg)"/>
  <rect x="24" y="24" width="464" height="464" rx="96" fill="none" stroke="url(#accent)" stroke-width="6" opacity="0.85"/>
  <!-- ¤³╚ÚÍ½	 -->
  <path
    d="M256 392c-72-48-120-92-120-148 0-44 32-76 76-76 28 0 44 14 56 28 12-14 28-28 56-28 44 0 76 32 76 76 0 56-48 100-120 148z"
    fill="#ff8ec8"
    filter="url(#glow)"
    opacity="0.95"
  />
  <!-- ½³╔¿nUjÚb -->
  <rect x="156" y="118" width="200" height="132" rx="18" fill="rgba(255,255,255,0.08)" stroke="rgba(255,200,240,0.35)" stroke-width="4"/>
  <text
    x="256"
    y="210"
    text-anchor="middle"
    font-family="'M PLUS Rounded 1c', 'Hiragino Maru Gothic ProN', system-ui, sans-serif"
    font-size="72"
    font-weight="700"
    fill="url(#accent)"
  >LL</text>
</svg>
