<svg xmlns="http://www.w3.org/2000/svg" viewBox="0 0 512 512" role="img" aria-label="Loveca Labo">
  <defs>
    <linearGradient id="bg" x1="0%" y1="0%" x2="100%" y2="100%">
      <stop offset="0%" stop-color="#2a1824"/>
      <stop offset="100%" stop-color="#1a1018"/>
    </linearGradient>
    <linearGradient id="heart" x1="0%" y1="0%" x2="0%" y2="100%">
      <stop offset="0%" stop-color="#ff8ec8"/>
      <stop offset="100%" stop-color="#e04090"/>
    </linearGradient>
  </defs>
  <rect width="512" height="512" rx="112" fill="url(#bg)"/>
  <rect x="32" y="32" width="448" height="448" rx="88" fill="none" stroke="rgba(255,160,200,0.35)" stroke-width="8"/>
  <path fill="url(#heart)" d="M256 396c-8 0-16-3-22-9C128 292 64 228 64 164c0-52 40-92 92-92 36 0 68 20 84 50 16-30 48-50 84-50 52 0 92 40 92 92 0 64-64 128-170 223-6 6-14 9-22 9z"/>
</svg>
